<?xml version="1.0" standalone="no"?>
<!DOCTYPE svg PUBLIC "-//W3C//DTD SVG 20010904//EN"
 "http://www.w3.org/TR/2001/REC-SVG-20010904/DTD/svg10.dtd">
<svg version="1.0" xmlns="http://www.w3.org/2000/svg"
 width="810.000000pt" height="810.000000pt" viewBox="0 0 810.000000 810.000000"
 preserveAspectRatio="xMidYMid meet">

<g transform="translate(0.000000,810.000000) scale(0.100000,-0.100000)"
fill="#000000" stroke="none">
<path d="M4434 7834 c-129 -46 -192 -216 -130 -350 22 -48 98 -124 125 -124 6
0 11 -3 11 -8 0 -8 -499 -635 -535 -671 l-24 -25 -43 24 c-67 36 -543 317
-640 377 l-86 53 19 50 c37 96 21 193 -44 266 -73 83 -166 110 -273 79 -104
-30 -184 -139 -184 -250 0 -119 98 -239 211 -259 l35 -6 139 -430 c76 -236
142 -435 146 -441 5 -8 45 1 140 34 289 98 503 150 799 193 144 21 597 30 775
15 338 -28 661 -100 945 -210 l97 -38 71 221 c39 122 101 317 138 435 38 117
73 215 79 216 116 31 203 106 230 200 21 72 15 129 -22 197 -55 102 -155 150
-270 130 -113 -19 -190 -95 -215 -214 -10 -49 -9 -63 9 -119 12 -35 19 -67 16
-71 -2 -5 -115 -74 -251 -154 -136 -81 -302 -180 -368 -220 -67 -41 -126 -74
-132 -74 -10 0 -103 113 -475 573 -48 59 -87 111 -87 115 0 4 22 24 48 45 92
70 129 185 93 291 -18 51 -85 124 -136 147 -49 23 -152 24 -211 3z"/>
<path d="M4310 6069 c-610 -67 -1112 -272 -1581 -645 -404 -321 -781 -839
-960 -1319 -18 -49 -34 -91 -35 -93 0 -1 -142 61 -315 139 -173 78 -453 204
-624 280 -170 76 -409 183 -530 237 -121 55 -221 99 -223 97 -3 -2 114 -341
263 -765 53 -151 137 -393 187 -538 l90 -263 -50 -147 c-46 -134 -160 -453
-403 -1124 -83 -231 -95 -268 -85 -268 2 0 28 11 57 24 105 47 808 356 1084
476 406 177 534 230 538 222 3 -4 14 -38 27 -77 60 -187 173 -428 297 -637
419 -704 1128 -1206 1938 -1373 390 -80 846 -78 1232 6 596 129 1151 439 1578
881 142 147 217 240 333 417 189 287 359 672 422 953 7 32 15 58 17 58 2 0 32
-23 66 -51 34 -29 76 -58 94 -65 51 -22 131 -17 188 10 90 42 135 112 135 209
0 74 -28 114 -205 286 l-147 144 104 106 c242 246 253 262 252 357 -1 143
-135 254 -270 224 -65 -15 -104 -40 -163 -108 l-49 -56 -7 39 c-15 95 -70 288
-112 399 -230 609 -710 1183 -1274 1525 -370 225 -726 353 -1170 422 -154 23
-556 34 -699 18z m559 -363 c76 -40 83 -156 13 -213 -22 -18 -113 -16 -140 3
-49 34 -66 109 -37 164 28 55 105 76 164 46z m-560 -142 c165 -49 233 -252
131 -392 -46 -64 -98 -93 -175 -99 -83 -7 -143 10 -196 55 -148 127 -101 369
83 433 65 23 90 23 157 3z m-701 -211 c48 -36 72 -81 72 -138 0 -124 -122
-200 -234 -146 -118 58 -125 217 -13 286 35 21 51 25 95 22 32 -2 63 -12 80
-24z m1786 -17 c161 -67 201 -281 74 -403 -45 -44 -96 -63 -168 -63 -72 0
-123 19 -168 63 -74 70 -96 172 -59 269 20 50 79 111 131 134 40 17 148 18
190 0z m728 -243 c98 -58 95 -213 -4 -264 -73 -37 -150 -17 -202 54 -27 37
-28 120 -1 161 42 64 141 87 207 49z m-3189 -217 c50 -20 95 -78 102 -130 6
-37 3 -55 -16 -93 -36 -70 -66 -88 -150 -88 l-70 0 -45 47 c-41 44 -44 50 -44
103 0 60 14 97 52 132 45 43 112 54 171 29z m1747 -118 c53 -37 73 -71 78
-135 3 -48 0 -64 -20 -92 -40 -59 -72 -76 -143 -76 -71 0 -103 17 -142 75 -29
41 -30 120 -4 169 41 76 160 107 231 59z m-1030 -168 c118 -60 129 -234 21
-307 -175 -118 -377 117 -233 271 54 58 141 72 212 36z m3255 -116 c179 -237
298 -488 353 -744 l18 -85 132 -3 c73 -1 132 -6 132 -10 0 -4 -57 -68 -126
-142 -70 -74 -141 -153 -159 -175 -63 -77 -81 -184 -48 -285 14 -45 40 -77
174 -219 l158 -166 -139 -3 -139 -3 -10 -32 c-5 -17 -20 -66 -31 -107 -107
-368 -352 -785 -638 -1082 -404 -420 -894 -693 -1437 -803 -227 -46 -368 -58
-620 -52 -236 5 -367 21 -570 68 -399 92 -825 317 -1145 604 -41 37 -76 70
-77 73 -2 4 86 8 195 9 812 6 1643 397 2122 998 253 318 388 643 455 1100 14
94 35 208 46 255 84 336 287 617 550 764 102 56 202 87 349 110 14 2 109 4
212 5 l186 1 57 -76z m-1670 -20 c52 -24 88 -84 89 -147 1 -90 -53 -155 -137
-164 -144 -17 -240 132 -165 255 39 64 140 91 213 56z m-1040 -238 c89 -38
149 -131 148 -230 -1 -77 -19 -120 -72 -173 -73 -72 -202 -94 -289 -49 -40 21
-97 77 -119 119 -26 48 -24 160 4 212 64 121 205 172 328 121z m-1659 -101
c124 -72 150 -249 53 -358 -52 -60 -108 -81 -193 -75 -76 7 -125 33 -166 90
-41 56 -56 127 -41 194 15 67 82 145 144 168 61 23 146 15 203 -19z m-1516
-141 c91 -41 226 -102 300 -135 148 -66 180 -91 180 -145 0 -58 -45 -92 -113
-84 -27 2 -578 258 -600 278 -29 26 -39 60 -27 96 10 31 52 65 80 66 8 0 89
-34 180 -76z m2275 -100 c93 -44 149 -137 148 -245 0 -84 -28 -146 -89 -197
-55 -46 -94 -60 -163 -61 -73 -1 -123 16 -171 56 -160 137 -118 386 77 459 49
18 147 12 198 -12z m1719 -74 c40 -15 107 -81 127 -125 79 -173 -89 -358 -273
-303 -91 27 -168 149 -154 240 13 80 66 152 136 182 40 17 126 21 164 6z
m-3663 -539 c36 -36 38 -79 7 -115 l-23 -25 -264 -3 -264 -2 -23 28 c-32 37
-32 89 1 121 l24 25 256 0 257 0 29 -29z m793 5 c50 -21 76 -60 76 -117 0 -39
-5 -53 -30 -77 -77 -78 -202 -27 -204 84 -1 52 27 94 75 111 44 15 44 15 83
-1z m2299 -95 c108 -42 165 -132 136 -214 -24 -67 -51 -80 -187 -87 -105 -4
-123 -8 -155 -30 -101 -68 -101 -234 0 -300 33 -21 53 -25 158 -30 135 -6 155
-14 181 -72 49 -109 -50 -214 -238 -254 -104 -22 -376 -14 -513 16 -372 80
-674 280 -675 449 0 66 23 113 89 183 99 106 234 187 432 261 221 83 354 107
559 103 132 -2 164 -6 213 -25z m-1721 -156 c23 -17 56 -53 73 -80 26 -42 30
-58 30 -119 0 -59 -5 -79 -27 -117 -82 -139 -261 -158 -371 -40 -88 94 -89
226 -3 320 49 53 99 72 183 69 61 -3 78 -8 115 -33z m-1253 -250 c28 -28 32
-72 9 -107 -9 -14 -56 -41 -114 -68 -55 -24 -187 -86 -294 -137 -115 -55 -208
-93 -226 -93 -43 0 -84 45 -84 91 0 26 8 42 28 61 23 22 465 234 572 274 43
17 78 10 109 -21z m1262 -536 c43 -15 107 -74 125 -116 17 -38 18 -120 3 -160
-5 -15 -27 -45 -47 -66 -98 -101 -268 -73 -333 56 -30 59 -24 150 15 206 51
73 153 108 237 80z m704 -325 c43 -20 67 -57 69 -105 2 -74 -46 -119 -125
-119 -33 0 -47 6 -75 34 -29 29 -34 41 -34 81 0 57 28 101 73 114 46 13 55 13
92 -5z"/>
<path d="M6328 4081 c-80 -26 -135 -61 -194 -123 -89 -94 -130 -211 -122 -347
4 -62 11 -91 42 -154 68 -142 189 -232 345 -258 286 -47 563 231 514 515 -29
172 -147 310 -311 365 -78 27 -194 27 -274 2z m212 -303 c50 -34 72 -71 77
-125 8 -96 -56 -163 -156 -163 -89 0 -150 54 -159 139 -6 67 34 137 93 161 40
17 111 11 145 -12z"/>
</g>
</svg>
